<svg id="logo" width="93" height="122" viewBox="0 0 93 122" fill="none" xmlns="http://www.w3.org/2000/svg">
<path d="M58.7015 121.999C58.1504 121.936 57.5958 121.887 57.0465 121.808C54.4224 121.43 52.0501 120.499 50.2132 118.482C48.5198 116.627 47.8113 114.421 48.1139 111.951C48.3466 110.061 48.7385 108.19 49.0814 106.313C49.7811 102.439 50.4932 98.5669 51.2174 94.6972C51.9417 90.8275 52.6514 86.9765 53.3465 83.1442C54.0801 79.1602 54.8142 75.1761 55.549 71.1921C55.8452 69.5805 56.1409 67.9689 56.436 66.3574C56.4727 66.1596 56.5112 66.03 56.7736 66.03C59.0636 66.0423 61.3536 66.03 63.6436 66.03C63.7241 66.03 63.8046 66.0423 63.9288 66.0545C63.8238 66.6392 63.7241 67.2046 63.6209 67.77C62.9304 71.551 62.2388 75.3325 61.546 79.1147L59.41 90.8094L57.3369 102.154C56.6441 105.936 55.9525 109.718 55.2621 113.501C55.1011 114.376 54.9017 115.263 54.8195 116.154C54.7236 117.062 54.9315 117.975 55.4106 118.752C55.8896 119.528 56.6127 120.124 57.4664 120.445C59.8963 121.414 63.3427 121.036 65.5453 118.5C66.322 117.607 66.6159 116.532 66.8153 115.398C67.5151 111.44 68.2394 107.486 68.9531 103.53C69.6448 99.7058 70.3346 95.8811 71.0227 92.0558C71.7108 88.2304 72.4054 84.4057 73.1063 80.5815C73.3804 79.0587 73.6556 77.5369 73.932 76.0164C73.9495 75.9271 73.9548 75.8413 73.9705 75.703H69.8174C69.9591 74.9101 70.0938 74.1661 70.2302 73.4029H86.0048C85.8736 74.1346 85.7529 74.8541 85.6077 75.5682C85.5955 75.6278 85.4153 75.689 85.3121 75.689C84.1469 75.689 82.9818 75.689 81.8132 75.689H81.4301C78.7173 90.8258 76.0063 105.95 73.297 121.061H72.9191C70.6297 121.061 68.3391 121.061 66.0473 121.061C65.8942 121.058 65.7414 121.078 65.5942 121.12C64.1677 121.571 62.6912 121.845 61.1979 121.936C61.107 121.947 61.017 121.965 60.9285 121.989L58.7015 121.999Z" fill="white"/>
<path d="M80.5319 39.445C80.6544 38.7448 80.7698 38.0936 80.8818 37.4372L82.9654 25.9035C83.6745 21.979 84.3836 18.0539 85.0927 14.1282C85.572 11.4693 86.0776 8.81731 86.5132 6.15137C86.6235 5.43851 86.6235 4.71293 86.5132 4.00006C86.312 2.63471 85.4636 1.72447 84.1462 1.38489C81.3472 0.656699 78.7877 1.10306 76.6237 3.13534C75.5163 4.17511 74.9845 5.49145 74.7221 6.96883C73.9471 11.345 73.1318 15.7088 72.3341 20.0797C71.5818 24.1968 70.8302 28.3133 70.0791 32.4292C69.3478 36.4342 68.6148 40.4393 67.88 44.4443C67.7051 45.3773 67.5302 46.3085 67.371 47.245C67.3412 47.4201 67.2992 47.4953 67.105 47.4953C64.7643 47.4883 62.423 47.4883 60.0811 47.4953C60.0277 47.4911 59.9745 47.4841 59.9219 47.4743C60.0163 46.9492 60.1073 46.424 60.2018 45.8989C60.9634 41.7725 61.7215 37.6467 62.476 33.5215C63.2236 29.4674 63.9701 25.4128 64.7153 21.3576C65.3311 18.0229 65.9609 14.6918 66.5557 11.3537C67.14 8.06462 68.816 5.46344 71.4209 3.42416C73.6984 1.6413 76.4216 0.51868 79.2933 0.178828C81.3017 -0.0802395 83.3013 -0.0907446 85.2886 0.367874C90.0121 1.45841 92.6625 5.684 92.9669 9.18491C93.0823 10.5152 92.8794 11.8106 92.6415 13.1182C92.0012 16.6278 91.3784 20.1392 90.7486 23.6489C90.0757 27.4042 89.4027 31.1578 88.7298 34.9096C88.4726 36.3414 88.2049 37.7716 87.967 39.2034C87.932 39.4047 87.862 39.4818 87.6521 39.4818C85.3621 39.4818 83.0721 39.4818 80.7821 39.4818C80.7261 39.4677 80.6544 39.4572 80.5319 39.445Z" fill="white"/>
<path d="M14.2019 119.961C14.3068 119.971 14.3856 119.987 14.4643 119.987C16.5636 119.978 18.6752 120.027 20.7762 119.942C23.5893 119.83 26.1995 119.031 28.4108 117.209C29.9748 115.924 31.0611 114.286 31.9096 112.469C33.157 109.785 34.0317 106.974 34.8172 104.131C36.068 99.6083 37.0372 95.0291 37.9189 90.4149C37.9959 90.0105 38.0764 89.6062 38.1586 89.1896H39.5371C37.5545 99.8207 35.5718 110.44 33.5891 121.048H0C0.0612301 120.722 0.103217 120.411 0.188939 120.11C0.208183 120.045 0.383125 119.987 0.486342 119.987C1.50801 119.978 2.52968 119.987 3.5496 119.987C4.48904 119.987 5.42849 119.987 6.36618 119.987C6.58486 119.987 6.68283 119.942 6.73006 119.696C7.3931 116.183 8.07187 112.672 8.7454 109.159C9.56181 104.897 10.3782 100.638 11.1946 96.3804C12.011 92.1233 12.8274 87.8715 13.6438 83.6249L16.1525 70.5367C16.4103 69.1912 16.668 67.8451 16.9257 66.4984C17.0325 65.9523 16.9572 66.0416 17.4506 66.0398C19.6385 66.0398 21.8259 66.0398 24.0127 66.0398H24.4501C21.0328 84.0322 17.6168 102.006 14.2019 119.961Z" fill="white"/>
<path d="M20.5723 47.4748C23.474 32.3159 26.3769 17.1599 29.2809 2.00681H22.9602C23.025 1.64621 23.0757 1.33638 23.1439 1.0283C23.1527 0.984537 23.2419 0.942528 23.3014 0.926774C23.3734 0.917963 23.4463 0.917963 23.5183 0.926774H43.3376C43.2764 1.18495 43.2285 1.44612 43.1942 1.70923C43.1732 1.95604 43.0542 2.00331 42.832 2.00156C40.9228 1.99455 39.0148 1.99455 37.1079 2.00156C36.5271 2.00156 36.6513 1.91753 36.5428 2.48293C35.3952 8.49515 34.2511 14.5091 33.1104 20.5248C31.8194 27.3096 30.5289 34.0932 29.2389 40.8756C28.8377 42.9762 28.4377 45.0825 28.0388 47.1948C28.0231 47.284 27.9951 47.3698 27.9706 47.4748H20.5723Z" fill="white"/>
<path d="M25.5557 53.0072C25.8723 53.0072 26.1715 52.9914 26.4671 53.0159C26.5792 53.0421 26.6769 53.1104 26.74 53.2067C27.8387 54.8638 28.9326 56.5244 30.022 58.1885C30.0793 58.2833 30.1577 58.3636 30.2511 58.4231V53.0282H31.4075V60.8545C31.0839 60.8545 30.776 60.8702 30.4716 60.8545C30.3876 60.8545 30.2966 60.7354 30.2354 60.6514C29.1449 59.0013 28.0574 57.3489 26.9727 55.6941C26.9101 55.5904 26.8222 55.5043 26.7173 55.4438V60.8457H25.5557V53.0072Z" fill="white"/>
<path d="M44.8594 53.0591C46.0542 53.0591 47.2229 52.9891 48.3775 53.0783C48.868 53.1106 49.3303 53.3189 49.6797 53.6649C50.029 54.0109 50.2419 54.4714 50.2791 54.9618C50.3998 56.0996 49.9292 56.9013 48.8708 57.3302L48.7344 57.3897L50.5328 60.8573C50.0937 60.8573 49.7053 60.8696 49.3187 60.8468C49.2295 60.8468 49.1158 60.7261 49.0685 60.6333C48.5909 59.6985 48.1186 58.7603 47.669 57.8151C47.6395 57.7183 47.5764 57.6352 47.491 57.581C47.4057 57.5267 47.3037 57.5048 47.2036 57.5192C46.8257 57.5437 46.4444 57.5192 46.0315 57.5192V60.8241H44.8646L44.8594 53.0591ZM46.0315 54.0586V56.518C46.0684 56.5268 46.1058 56.5332 46.1435 56.5372C46.7208 56.5372 47.2981 56.5372 47.8754 56.5372C48.5752 56.5285 49.1 56.0681 49.1192 55.4257C49.1525 54.645 48.7274 54.1111 47.9681 54.0656C47.3331 54.0288 46.6945 54.0586 46.0315 54.0586V54.0586Z" fill="white"/>
<path d="M63.3485 57.6063H61.704V56.6453H64.5189C64.5031 57.4487 64.6028 58.2539 64.3806 59.0416C64.064 60.1689 62.9216 60.9426 61.6235 60.9199C60.1768 60.8953 59.0134 59.8958 58.9102 58.5147C58.8437 57.6395 58.8769 56.7415 58.8734 55.8558C58.8701 55.6388 58.8871 55.422 58.9242 55.2081C59.1516 53.9601 59.9476 53.1601 61.2334 52.9763C62.8761 52.7417 64.2319 53.6887 64.4909 55.3534C64.141 55.3534 63.7911 55.3657 63.4412 55.3412C63.3747 55.3412 63.2925 55.2011 63.2663 55.1101C62.9339 54.2261 62.1081 53.792 61.2072 54.0598C60.5424 54.2524 60.1295 54.7198 60.1015 55.3972C60.0449 56.4552 60.0549 57.5157 60.1313 58.5725C60.2047 59.4267 60.9273 59.9326 61.7617 59.8818C62.1672 59.8716 62.554 59.7094 62.8455 59.4273C63.1371 59.1453 63.3122 58.764 63.3362 58.3589C63.3625 58.1174 63.3485 57.8811 63.3485 57.6063Z" fill="white"/>
<path d="M15.7718 53.0178H16.9194V53.3557C16.9194 54.9748 16.9054 56.594 16.9194 58.2132C16.9386 59.6993 18.2577 60.1387 19.2531 59.7343C19.9372 59.456 20.1961 58.8748 20.1996 58.1729C20.1996 56.573 20.1996 54.9748 20.1996 53.3749V53.0248H21.3454C21.3566 53.0921 21.3642 53.1598 21.3682 53.2279C21.3682 54.8978 21.3769 56.5695 21.3682 58.2412C21.3779 58.8241 21.191 59.3933 20.8378 59.857C20.4845 60.3207 19.9854 60.6517 19.4211 60.7968C18.1352 61.1469 16.8127 60.7041 16.1654 59.6958C15.9035 59.297 15.7603 58.832 15.7525 58.3549C15.7403 56.622 15.7525 54.8891 15.7525 53.1561C15.7558 53.1096 15.7622 53.0634 15.7718 53.0178V53.0178Z" fill="white"/>
<path d="M34.7969 60.8577C35.0138 60.2643 35.2132 59.7146 35.4144 59.1667C36.1282 57.215 36.8472 55.2632 37.5522 53.3062C37.5705 53.2078 37.6269 53.1206 37.7092 53.0635C37.7914 53.0065 37.8928 52.9842 37.9913 53.0016C38.6124 53.0209 38.6124 53.0016 38.8223 53.581C39.6585 55.8718 40.4959 58.1631 41.3345 60.4551C41.38 60.5776 41.4202 60.7036 41.471 60.8577C41.0966 60.8577 40.7572 60.8682 40.4213 60.8577C40.3726 60.8476 40.3269 60.8266 40.2875 60.7963C40.2481 60.766 40.2161 60.7271 40.1939 60.6826C40.0469 60.3098 39.9087 59.9299 39.7985 59.5448C39.7355 59.3208 39.6236 59.2665 39.4031 59.27C38.5669 59.2823 37.7307 59.284 36.8962 59.27C36.6618 59.27 36.5463 59.3313 36.4763 59.5606C36.3696 59.9369 36.2402 60.308 36.0967 60.6721C36.0728 60.7203 36.0383 60.7624 35.9959 60.7954C35.9535 60.8284 35.9043 60.8515 35.8518 60.8629C35.5176 60.8752 35.187 60.8577 34.7969 60.8577ZM36.9329 58.2495H39.3594C38.9658 57.0994 38.5844 55.9861 38.2013 54.8729H38.1155C37.7254 55.9897 37.3353 57.0994 36.9329 58.2495Z" fill="white"/>
<path d="M74.1577 60.8569C73.7763 60.8569 73.4457 60.8709 73.1185 60.8569C73.0652 60.8458 73.0152 60.8226 72.9721 60.7893C72.9291 60.7559 72.8942 60.7132 72.8701 60.6643C72.7179 60.281 72.585 59.8906 72.4643 59.4968C72.4498 59.4222 72.4067 59.3563 72.3443 59.3131C72.2818 59.2699 72.2049 59.2529 72.1301 59.2657C71.2554 59.2657 70.3982 59.2797 69.5305 59.2657C69.4883 59.2598 69.4454 59.2623 69.4042 59.273C69.363 59.2837 69.3243 59.3024 69.2903 59.3281C69.2563 59.3538 69.2278 59.3859 69.2062 59.4227C69.1847 59.4594 69.1706 59.5001 69.1648 59.5423C69.0249 59.9834 68.8692 60.4175 68.7187 60.8569H67.4941C67.6971 60.2967 67.8895 59.7558 68.0872 59.2185C68.8027 57.2667 69.527 55.3167 70.2285 53.3597C70.3265 53.0901 70.4419 52.9974 70.7271 53.0096C71.2991 53.0359 71.2991 53.0096 71.4933 53.5487C72.3401 55.857 73.1862 58.1664 74.0317 60.477C74.058 60.5821 74.0947 60.6994 74.1577 60.8569ZM72.0584 58.2627C71.6613 57.1039 71.2799 55.9871 70.8968 54.8703H70.8111L69.6092 58.2627H72.0584Z" fill="white"/>
<path d="M91.8295 60.8558C91.4324 60.8558 91.0755 60.8663 90.7186 60.8558C90.6504 60.8558 90.5612 60.7455 90.5314 60.6668C90.381 60.2729 90.2393 59.8738 90.1133 59.4712C90.1018 59.4061 90.0649 59.3481 90.0108 59.3101C89.9568 59.272 89.8898 59.257 89.8246 59.2682C88.9272 59.2682 88.0297 59.2682 87.1323 59.2804C87.0745 59.2913 87.0201 59.3154 86.9734 59.351C86.9266 59.3865 86.8887 59.4325 86.8628 59.4852C86.7071 59.8668 86.5759 60.2572 86.4535 60.651C86.4484 60.6858 86.4364 60.7192 86.4181 60.7493C86.3998 60.7793 86.3756 60.8053 86.347 60.8257C86.3184 60.8462 86.286 60.8606 86.2517 60.8682C86.2174 60.8758 86.1819 60.8763 86.1473 60.8698C85.8289 60.8558 85.5088 60.8698 85.1396 60.8698L88.0122 53.0295H88.9569C89.9051 55.6132 90.8551 58.2161 91.8295 60.8558ZM88.5423 54.8535H88.4671L87.281 58.2494H89.7074L88.5423 54.8535Z" fill="white"/>
<path d="M77.541 53.0178H78.6764V59.7973H82.4482V60.8318H77.5498L77.541 53.0178Z" fill="white"/>
<path d="M7.58984 53.0242H8.73047V59.8054H12.504V60.8364H7.58984V53.0242Z" fill="white"/>
</svg>
