<?xml version="1.0" standalone="no"?>
<!DOCTYPE svg PUBLIC "-//W3C//DTD SVG 20010904//EN"
 "http://www.w3.org/TR/2001/REC-SVG-20010904/DTD/svg10.dtd">
<svg version="1.0" xmlns="http://www.w3.org/2000/svg"
 width="411.000000pt" height="411.000000pt" viewBox="0 0 411.000000 411.000000"
 preserveAspectRatio="xMidYMid meet">
<metadata>
Created by potrace 1.11, written by Peter Selinger 2001-2013
</metadata>
<g transform="translate(0.000000,411.000000) scale(0.100000,-0.100000)"
fill="#000000" stroke="none">
<path d="M3158 4099 c-71 -11 -138 -35 -204 -75 -126 -76 -194 -171 -220 -309
-2 -11 -22 -117 -44 -235 -86 -466 -100 -539 -124 -660 -22 -113 -35 -185 -51
-277 -3 -18 -2 -33 2 -34 44 -4 227 -2 236 3 6 3 12 12 13 20 1 7 11 65 23
128 11 63 23 133 27 155 3 22 7 42 9 45 3 4 28 143 50 270 3 19 24 132 47 250
22 118 41 224 43 235 1 11 14 83 29 160 38 193 68 240 177 277 56 19 151 16
185 -7 65 -42 68 -82 25 -315 -17 -91 -51 -275 -76 -410 -24 -135 -47 -256
-50 -270 -7 -36 -45 -256 -45 -264 0 -3 56 -6 124 -6 l125 0 10 53 c6 28 13
68 16 87 3 19 8 51 11 70 3 19 23 127 44 240 21 113 46 248 55 300 9 52 21
115 25 140 25 130 -8 249 -93 334 -83 83 -218 117 -369 95z"/>
<path d="M1270 4072 c-5 -2 -10 -11 -10 -20 0 -15 13 -17 101 -17 61 0 103 -4
105 -10 3 -6 -5 -55 -16 -110 -12 -55 -23 -111 -26 -125 -2 -14 -9 -45 -14
-70 -5 -25 -12 -60 -15 -78 -3 -18 -12 -65 -21 -105 -8 -39 -17 -88 -20 -107
-3 -19 -23 -125 -44 -235 -22 -110 -41 -211 -44 -225 -2 -14 -7 -36 -10 -50
-3 -14 -8 -36 -10 -50 -2 -14 -11 -60 -20 -102 -9 -42 -18 -94 -22 -115 -3
-21 -9 -54 -15 -73 -20 -77 -23 -75 111 -75 65 1 122 3 124 6 3 3 21 86 40
185 69 353 185 960 189 989 12 71 66 336 71 343 3 5 53 8 111 8 58 -1 106 2
107 6 6 33 5 33 -329 33 -183 0 -337 -1 -343 -3z"/>
<path d="M774 2198 l1 -132 83 -1 c72 -1 82 1 82 17 0 15 -9 18 -63 18 l-63 0
1 115 c1 111 0 115 -20 115 -21 0 -21 -4 -21 -132z"/>
<path d="M1057 2323 c-3 -5 -4 -54 -3 -110 2 -94 4 -103 27 -122 50 -41 113
-35 145 14 13 19 17 50 18 123 1 90 0 97 -19 100 -19 3 -20 -3 -21 -99 -2
-110 -10 -129 -60 -129 -37 0 -49 27 -50 114 -3 116 -3 116 -18 116 -8 0 -17
-3 -19 -7z"/>
<path d="M1380 2196 c0 -121 2 -134 18 -132 14 1 18 15 22 90 l5 88 60 -88
c33 -49 67 -89 75 -89 12 0 15 23 18 133 2 127 2 132 -18 132 -18 0 -20 -7
-21 -67 -1 -38 -1 -76 0 -85 4 -35 -15 -17 -69 67 -80 125 -90 120 -90 -49z"/>
<path d="M1737 2202 c-26 -70 -47 -130 -47 -134 0 -17 37 2 48 25 12 24 19 27
62 27 43 0 50 -3 62 -27 11 -23 48 -42 48 -25 0 4 -21 64 -47 135 -34 90 -52
127 -64 127 -11 0 -29 -37 -62 -128z m85 2 l16 -55 -37 3 c-20 2 -35 7 -35 11
7 33 30 97 35 97 3 0 13 -25 21 -56z"/>
<path d="M2020 2196 c0 -121 2 -134 18 -132 13 1 18 13 22 55 4 46 8 55 26 57
17 3 28 -8 53 -55 25 -48 35 -58 51 -54 12 3 19 8 18 12 -2 3 -14 27 -28 53
-22 44 -23 49 -7 60 24 19 36 59 25 90 -12 33 -51 48 -124 48 l-54 0 0 -134z
m118 90 c53 -17 23 -76 -39 -76 l-39 0 0 43 c0 41 1 43 29 41 15 -1 38 -5 49
-8z"/>
<path d="M2523 2313 c-31 -26 -41 -59 -37 -133 2 -59 5 -67 35 -92 65 -54 149
-14 152 73 l2 44 -45 0 c-36 0 -45 -4 -48 -19 -3 -15 0 -18 21 -12 29 7 38 -8
26 -41 -15 -42 -97 -38 -100 5 -7 114 -1 139 39 153 18 7 28 3 48 -16 44 -44
75 -23 36 25 -25 30 -98 38 -129 13z"/>
<path d="M2870 2327 c0 -2 -20 -57 -45 -123 -25 -65 -45 -123 -45 -130 0 -23
35 -9 47 19 11 24 17 27 62 27 45 0 50 -2 59 -29 9 -26 31 -36 46 -20 2 2 -17
60 -43 129 -32 86 -52 126 -64 128 -9 2 -17 2 -17 -1z m39 -117 c6 -19 10 -39
8 -45 -2 -10 -67 -18 -67 -8 0 18 36 101 41 95 4 -4 12 -23 18 -42z"/>
<path d="M3109 2328 c-6 -31 -1 -258 6 -259 50 -6 143 -4 153 4 25 19 10 27
-53 27 l-65 0 0 115 c0 108 -1 115 -20 115 -11 0 -20 -1 -21 -2z"/>
<path d="M3456 2322 c-2 -4 -15 -35 -26 -68 -12 -32 -33 -87 -46 -121 -29 -73
-29 -72 -6 -68 9 2 20 4 23 4 4 1 10 12 13 26 6 23 11 25 59 25 49 0 53 -2 63
-28 10 -27 44 -41 44 -18 0 6 -12 43 -26 81 -14 39 -34 93 -43 120 -17 46 -42
68 -55 47z m49 -145 c7 -25 5 -26 -30 -24 -33 2 -36 4 -31 27 2 14 10 39 17
55 l11 30 14 -31 c7 -17 16 -43 19 -57z"/>
<path d="M1055 1876 c-3 -6 -11 -49 -19 -96 -23 -126 -23 -129 -40 -210 -16
-79 -185 -955 -203 -1050 -2 -14 -17 -90 -33 -170 -28 -141 -34 -173 -46 -235
-3 -16 -7 -32 -10 -35 -3 -2 -51 -5 -107 -6 -56 -1 -105 -2 -109 -3 -13 -2 -9
-31 5 -32 6 -1 263 -2 570 -3 524 -1 557 0 558 17 1 9 2 20 4 25 2 7 14 70 21
107 30 158 64 335 68 351 2 12 7 37 10 55 8 52 35 201 41 229 10 47 47 255 49
270 0 9 -7 15 -19 15 -22 0 -23 -4 -80 -265 -15 -69 -43 -179 -61 -245 -94
-326 -170 -436 -344 -495 -50 -17 -90 -22 -201 -23 -77 -1 -140 2 -142 7 -2 5
11 81 29 170 18 88 35 179 38 201 4 22 8 47 11 55 4 13 100 515 111 580 2 14
9 45 14 70 8 37 57 298 74 390 2 14 18 93 35 176 17 84 31 154 31 156 0 2 -57
4 -126 5 -85 0 -127 -3 -129 -11z"/>
<path d="M2395 1880 c-2 -4 -7 -22 -10 -41 -3 -19 -8 -45 -10 -59 -3 -14 -7
-34 -9 -45 -2 -11 -20 -105 -40 -210 -19 -104 -38 -206 -41 -225 -3 -19 -12
-69 -20 -110 -8 -41 -17 -88 -20 -105 -5 -31 -40 -217 -50 -270 -50 -259 -78
-422 -82 -476 -19 -243 214 -376 547 -316 41 8 126 13 187 12 94 -1 114 2 117
15 3 8 11 53 20 100 8 47 25 137 37 200 26 142 25 135 44 250 9 52 29 165 45
250 16 85 45 247 65 360 45 256 62 340 69 348 4 3 35 6 70 6 57 0 65 2 70 20
16 59 30 56 -258 56 -287 0 -276 2 -276 -56 0 -23 3 -24 66 -24 l66 0 -6 -43
c-10 -64 -15 -96 -26 -152 -6 -27 -12 -59 -14 -70 -2 -11 -7 -38 -11 -60 -4
-22 -9 -51 -11 -65 -3 -14 -30 -162 -60 -330 -31 -168 -58 -316 -60 -330 -3
-14 -13 -70 -24 -125 -10 -55 -21 -120 -25 -145 -9 -63 -32 -106 -74 -141
-102 -84 -272 -66 -319 34 -21 45 -20 56 24 287 14 74 28 146 30 160 3 14 9
48 14 75 5 28 12 64 15 80 10 61 16 91 25 140 5 28 12 65 15 84 3 19 7 37 9
40 2 3 7 26 10 51 3 25 8 56 11 70 3 14 14 77 25 140 12 63 23 126 26 140 3
14 7 36 10 50 2 14 7 36 9 50 3 14 8 36 10 50 7 37 35 191 41 225 3 17 9 47
14 68 7 33 6 38 -14 41 -34 7 -226 4 -231 -4z"/>
</g>
</svg>
